HIERARCHY
ROOT Hips
{
	OFFSET -0.001795 -0.223333 0.028219
	CHANNELS 6 Xposition Yposition Zposition Zrotation Yrotation Xrotation 
	JOINT LeftUpLeg
	{
		OFFSET 0.069520 -0.091406 -0.006815
		CHANNELS 3 Zrotation Yrotation Xrotation
		JOINT LeftLeg
		{
			OFFSET 0.034277 -0.375199 -0.004496
			CHANNELS 3 Zrotation Yrotation Xrotation
			JOINT LeftFoot
			{
				OFFSET -0.013596 -0.397961 -0.043693
				CHANNELS 3 Zrotation Yrotation Xrotation
				JOINT LeftToe
				{
					OFFSET 0.026358 -0.055791 0.119288
					CHANNELS 3 Zrotation Yrotation Xrotation
					End Site
					{
						OFFSET 0.000000 0.000000 0.000000
					}
				}
			}
		}
	}
	JOINT RightUpLeg
	{
		OFFSET -0.067670 -0.090522 -0.004320
		CHANNELS 3 Zrotation Yrotation Xrotation
		JOINT RightLeg
		{
			OFFSET -0.038290 -0.382569 -0.008850
			CHANNELS 3 Zrotation Yrotation Xrotation
			JOINT RightFoot
			{
				OFFSET 0.015774 -0.398415 -0.042312
				CHANNELS 3 Zrotation Yrotation Xrotation
				JOINT RightToe
				{
					OFFSET -0.025372 -0.048144 0.123348
					CHANNELS 3 Zrotation Yrotation Xrotation
					End Site
					{
						OFFSET 0.000000 0.000000 0.000000
					}
				}
			}
		}
	}
	JOINT Spine
	{
		OFFSET -0.002533 0.108963 -0.026696
		CHANNELS 3 Zrotation Yrotation Xrotation
		JOINT Spine1
		{
			OFFSET 0.005487 0.135180 0.001092
			CHANNELS 3 Zrotation Yrotation Xrotation
			JOINT Spine2
			{
				OFFSET 0.001457 0.052922 0.025425
				CHANNELS 3 Zrotation Yrotation Xrotation
				JOINT Neck
				{
					OFFSET -0.002778 0.213870 -0.042857
					CHANNELS 3 Zrotation Yrotation Xrotation
					JOINT Head
					{
						OFFSET 0.005152 0.064970 0.051349
						CHANNELS 3 Zrotation Yrotation Xrotation
						End Site
						{
							OFFSET 0.000000 0.000000 0.000000
						}
					}
				}
				JOINT LeftShoulder
				{
					OFFSET 0.078845 0.121749 -0.034090
					CHANNELS 3 Zrotation Yrotation Xrotation
					JOINT LeftArm
					{
						OFFSET 0.090977 0.030469 -0.008868
						CHANNELS 3 Zrotation Yrotation Xrotation
						JOINT LeftForeArm
						{
							OFFSET 0.259612 -0.012772 -0.027456
							CHANNELS 3 Zrotation Yrotation Xrotation
							JOINT LeftHand
							{
								OFFSET 0.249234 0.008986 -0.001171
								CHANNELS 3 Zrotation Yrotation Xrotation
								End Site
								{
									OFFSET 0.000000 0.000000 0.000000
								}
							}
						}
					}
				}
				JOINT RightShoulder
				{
					OFFSET -0.081759 0.118833 -0.038615
					CHANNELS 3 Zrotation Yrotation Xrotation
					JOINT RightArm
					{
						OFFSET -0.096012 0.032551 -0.009143
						CHANNELS 3 Zrotation Yrotation Xrotation
						JOINT RightForeArm
						{
							OFFSET -0.253742 -0.013329 -0.021401
							CHANNELS 3 Zrotation Yrotation Xrotation
							JOINT RightHand
							{
								OFFSET -0.255298 0.007772 -0.005559
								CHANNELS 3 Zrotation Yrotation Xrotation
								End Site
								{
									OFFSET 0.000000 0.000000 0.000000
								}
							}
						}
					}
				}
			}
		}
	}
}
MOTION
Frames: 10
Frame Time: 0.050000
0.000000 0.948215 0.000000 -0.471539 -3.906383 2.470757 3.121433 -0.013992 0.303037 -0.748881 0.177423 -3.314991 -1.011907 0.654183 6.784969 0.000000 0.000000 0.000000 -1.923669 0.203260 -1.639885 -0.988955 0.040137 -1.158278 1.972669 0.511951 7.350332 0.000000 0.000000 0.000000 5.549038 0.016710 -1.130140 -2.434765 1.130367 -3.165301 -3.039892 5.216009 6.879329 7.575174 -3.403847 -14.513772 0.000000 0.000000 0.000000 -20.030225 -3.705000 -0.835702 -50.959397 -5.708301 -3.666864 -12.423881 -20.937433 2.938295 0.000000 0.000000 0.000000 19.250104 -3.375340 -2.682116 57.601949 5.863469 -3.095192 9.630676 22.361038 2.676346 0.000000 0.000000 0.000000 
-0.000137 0.947143 0.000626 -0.699870 -4.373614 3.023108 3.565655 -0.003884 0.575252 -0.883199 0.221197 -4.440204 -1.164824 0.381050 6.922754 0.000000 0.000000 0.000000 -1.847851 0.279873 -2.550275 -0.902734 0.075901 -0.233550 2.054064 0.696171 7.250327 0.000000 0.000000 0.000000 6.201668 0.073898 -1.839729 -2.695037 1.247176 -2.676580 -3.806764 5.754556 6.241680 8.602545 -3.942914 -14.808770 0.000000 0.000000 0.000000 -20.848229 -3.665928 -1.110229 -49.871256 -5.827204 -3.413524 -13.221628 -21.105284 3.079249 0.000000 0.000000 0.000000 19.016483 -4.189470 -3.018162 58.671030 5.196658 -3.373850 10.365668 22.504927 2.853964 0.000000 0.000000 0.000000 
-0.000219 0.946771 0.000961 -0.416622 -4.253949 3.000248 3.080940 -0.011352 0.366942 -0.707767 0.179250 -3.491591 -1.092313 0.100571 5.807505 0.000000 0.000000 0.000000 -1.894369 0.283531 -2.589081 -1.217141 0.111454 -0.127313 1.540718 -0.294038 7.043753 0.000000 0.000000 0.000000 6.020138 0.080725 -1.911679 -2.372872 1.092643 -3.743979 -4.306849 5.962747 6.946308 8.074642 -3.739826 -14.024472 0.000000 0.000000 0.000000 -20.453348 -4.389763 -0.724555 -50.132131 -5.588574 -3.593339 -13.069918 -20.620552 2.976319 0.000000 0.000000 0.000000 19.857913 -3.562956 -2.646212 57.862854 4.903951 -3.601206 10.122697 22.981237 2.895645 0.000000 0.000000 0.000000 
-0.000344 0.946385 0.001348 -0.402610 -4.216580 3.090191 3.424272 -0.004198 0.562708 -1.074672 0.227687 -4.128601 -1.483363 -0.427664 6.343310 0.000000 0.000000 0.000000 -2.026522 0.311613 -2.901218 -0.986081 0.101094 0.111441 1.315958 -0.822335 7.139975 0.000000 0.000000 0.000000 6.067510 0.099040 -2.119931 -2.340609 1.085100 -3.064022 -4.313649 5.678978 5.999138 8.390039 -4.081340 -13.253306 0.000000 0.000000 0.000000 -21.066451 -3.868767 -1.061986 -49.941097 -5.959682 -3.331680 -12.909398 -20.252081 2.891955 0.000000 0.000000 0.000000 19.288435 -3.808571 -2.817746 57.754230 4.604455 -3.612863 11.198737 23.097042 3.097191 0.000000 0.000000 0.000000 
-0.000460 0.946402 0.001586 -0.335489 -4.107745 2.845969 3.046587 0.009746 0.664533 -0.582031 0.181066 -3.911220 -1.227016 -0.018720 6.129639 0.000000 0.000000 0.000000 -2.038710 0.292272 -2.679074 -0.985929 0.099895 0.081834 0.968135 -1.448264 6.912584 0.000000 0.000000 0.000000 6.009936 0.092124 -2.000019 -2.212083 1.030114 -2.959628 -4.415833 5.747658 5.840914 8.076532 -3.974756 -12.623750 0.000000 0.000000 0.000000 -21.100394 -4.210330 -0.930443 -49.772104 -6.138310 -3.220917 -13.609789 -20.116016 2.985700 0.000000 0.000000 0.000000 19.236442 -3.893129 -2.826414 57.583612 4.238172 -3.769475 11.430441 23.478855 3.208731 0.000000 0.000000 0.000000 
-0.000542 0.946468 0.001741 -0.339147 -3.893657 2.788331 2.999507 0.017181 0.775935 -0.586388 0.184569 -4.021696 -1.156190 0.085387 6.009880 0.000000 0.000000 0.000000 -2.016294 0.285235 -2.606170 -1.026995 0.105591 0.106667 0.905341 -1.610151 7.009918 0.000000 0.000000 0.000000 6.024785 0.097281 -2.048535 -2.108179 0.986641 -2.795592 -4.442471 5.470731 5.756938 8.037641 -4.025522 -12.273407 0.000000 0.000000 0.000000 -21.624928 -4.195457 -0.962715 -49.493531 -6.365632 -3.096790 -13.469129 -20.067169 2.959620 0.000000 0.000000 0.000000 19.184498 -3.653953 -2.727202 57.462042 4.143487 -3.798878 11.491294 23.385215 3.195129 0.000000 0.000000 0.000000 
-0.000600 0.946332 0.001694 -0.331862 -3.773942 2.704446 2.913139 0.019567 0.790067 -0.414359 0.171404 -4.047640 -1.013588 0.471628 6.288942 0.000000 0.000000 0.000000 -1.931762 0.279064 -2.555400 -1.116396 0.118019 0.172065 0.886355 -1.651927 7.034480 0.000000 0.000000 0.000000 6.041019 0.101166 -2.075865 -2.136555 1.001867 -2.579986 -4.548967 5.335154 5.707563 8.122271 -4.012154 -12.668182 0.000000 0.000000 0.000000 -21.685360 -4.230913 -0.936828 -49.532526 -6.371171 -3.097581 -13.362483 -19.823450 2.907199 0.000000 0.000000 0.000000 19.161506 -3.782919 -2.810453 57.444957 3.886101 -3.913450 11.711495 23.482064 3.250093 0.000000 0.000000 0.000000 
-0.000667 0.946419 0.001495 -0.377270 -3.608999 2.824743 2.834695 0.004145 0.576957 -0.242436 0.156017 -4.004011 -0.941598 0.512167 6.009637 0.000000 0.000000 0.000000 -1.808182 0.286043 -2.659933 -1.145404 0.125361 0.253974 0.734059 -1.831816 6.757586 0.000000 0.000000 0.000000 6.009974 0.103486 -2.134003 -2.057424 0.966815 -2.640251 -4.582473 5.297319 5.856019 8.251904 -4.141327 -12.439744 0.000000 0.000000 0.000000 -21.828456 -4.386960 -0.876828 -49.293185 -6.511389 -3.027555 -13.360253 -19.569035 2.868396 0.000000 0.000000 0.000000 19.293641 -3.900939 -2.870448 57.360119 3.907685 -3.917678 11.789658 23.157372 3.217873 0.000000 0.000000 0.000000 
-0.000756 0.946416 0.001271 -0.430343 -3.638198 2.914430 2.872917 -0.013345 0.339332 -0.201007 0.148406 -3.877426 -0.797171 0.793363 6.038409 0.000000 0.000000 0.000000 -1.692896 0.291325 -2.738146 -1.157537 0.123140 0.188476 0.756577 -1.790049 6.765873 0.000000 0.000000 0.000000 6.073766 0.110519 -2.220653 -2.068748 0.971852 -2.578459 -4.530654 5.243211 5.960887 8.348103 -4.192858 -12.560424 0.000000 0.000000 0.000000 -21.629282 -4.444668 -0.790533 -49.453230 -6.647181 -3.005720 -13.257703 -19.102987 2.786449 0.000000 0.000000 0.000000 19.323343 -3.797138 -2.833119 57.241882 3.876061 -3.936922 11.666617 22.958004 3.157841 0.000000 0.000000 0.000000 
-0.000852 0.946576 0.001154 -0.488341 -3.794371 3.069598 2.851407 -0.026887 0.143396 -0.206178 0.150104 -3.914681 -0.614502 1.130255 6.049957 0.000000 0.000000 0.000000 -1.607705 0.307605 -2.934238 -1.145027 0.119486 0.149279 0.773857 -1.724646 6.677003 0.000000 0.000000 0.000000 6.115856 0.128583 -2.428485 -2.113299 0.990683 -2.551521 -4.447045 5.424733 6.097400 8.455926 -4.268701 -12.515068 0.000000 0.000000 0.000000 -21.362589 -4.645678 -0.666843 -49.557362 -6.598681 -3.041963 -13.475585 -18.855731 2.782622 0.000000 0.000000 0.000000 19.318924 -3.728026 -2.771191 57.159854 3.840396 -3.963310 11.599731 22.667706 3.103808 0.000000 0.000000 0.000000 
